# Blender v2.78 (sub 0) OBJ File: 'ship2.blend'
# www.blender.org
mtllib ship3.mtl
o Cube
v 0.663710 -0.340684 -3.664536
v 0.152723 -0.166215 3.039640
v -0.156178 -0.166215 3.039640
v -0.659209 -0.340684 -3.664538
v 0.659006 0.256064 -3.664534
v 0.096915 0.043939 3.428119
v -0.100371 0.043939 3.428115
v -0.654571 0.256064 -3.664536
v 0.274471 -0.116043 0.043637
v -0.275754 -0.116043 0.043636
v 0.274471 0.140297 0.043639
v -0.275754 0.140297 0.043636
v -0.393370 -0.177780 -1.741499
v -0.390615 0.318165 -1.741498
v 0.393370 -0.177780 -1.741497
v 0.390568 0.318165 -1.741496
v 0.393369 -0.122828 1.785134
v 0.252988 0.177771 1.785136
v -0.393370 -0.122828 1.785133
v -0.253417 0.177771 1.785133
v 0.663710 -0.000000 -3.664535
v 0.152723 -0.061138 3.398008
v -0.156178 -0.061138 3.398006
v -0.659209 0.000000 -3.664537
v -0.275754 0.101671 0.043636
v 0.274471 0.101671 0.043638
v 0.393370 0.000000 -1.741497
v -0.393370 0.000000 -1.741498
v -0.393370 0.009823 1.785133
v 0.393369 0.009823 1.785136
v -0.018489 -0.411076 -3.862643
v -0.005078 -0.166215 3.039640
v -0.017810 0.411076 -3.862642
v -0.005078 0.043939 3.526632
v -0.006609 0.365471 0.043637
v -0.006609 -0.374509 0.043636
v -0.008533 -0.374509 -1.741498
v -0.008496 0.521812 -1.741497
v -0.008533 0.313401 1.785135
v -0.008533 -0.122828 1.785134
v -0.016519 0.000000 -3.862642
v -0.005078 -0.061138 3.526632
v 1.459731 0.641173 -3.911635
v 1.459731 0.692137 -3.911635
v 1.665609 0.688846 -3.905827
v 1.665609 0.644464 -3.905827
v -1.665609 0.644463 -3.905832
v -1.665609 0.688846 -3.905832
v -1.459731 0.692136 -3.911640
v -1.459731 0.641173 -3.911641
v -2.331878 -0.701126 -2.791153
v -2.331878 -0.523346 -2.791153
v -2.273643 -0.563708 -3.899745
v -2.273643 -0.635239 -3.899745
v 2.273627 -0.635239 -3.899742
v 2.273627 -0.563708 -3.899742
v 2.331864 -0.523345 -2.791151
v 2.331864 -0.701125 -2.791151
v -0.122025 -0.170797 -3.531796
v -0.121965 -0.296038 -3.553532
v -0.503842 -0.298085 -3.553889
v -0.412534 -0.193009 -3.535653
v -0.093300 0.227347 -3.425014
v -0.057348 0.114803 -3.366381
v -0.527408 0.128120 -3.373320
v -0.411959 0.223616 -3.423071
v 0.409075 0.223617 -3.423070
v 0.524523 0.128121 -3.373318
v 0.043303 0.114804 -3.366381
v 0.079255 0.227347 -3.425014
v 0.409749 -0.192979 -3.535648
v 0.501107 -0.298033 -3.553875
v 0.114237 -0.296079 -3.553536
v 0.114237 -0.170838 -3.531808
v -0.007058 0.177437 2.739755
v -0.202355 0.215911 2.089363
v -0.062212 0.077865 3.306796
v -0.004688 0.117376 3.443153
v 0.200375 0.215911 2.089365
v 0.057432 0.077865 3.306798
v 1.389267 -0.504622 -3.144561
v 1.389267 -0.576153 -3.144562
v 1.129837 -0.383899 -1.246519
v 1.129836 -0.445609 -1.246520
v 1.890726 -0.442215 -3.353273
v 1.805640 -0.330059 -1.849956
v 1.805640 -0.391770 -1.849957
v 1.890726 -0.513746 -3.353273
v -1.130391 -0.383899 -1.246521
v -1.130391 -0.445610 -1.246522
v -1.389339 -0.504622 -3.144563
v -1.389339 -0.576153 -3.144564
v -1.805919 -0.330060 -1.849959
v -1.890743 -0.442215 -3.353276
v -1.890743 -0.513746 -3.353276
v -1.805919 -0.391770 -1.849959
v -0.656098 -0.265992 -2.890094
v -0.651492 0.337320 -2.890093
v 0.658471 -0.265992 -2.890093
v 0.653793 0.337320 -2.890091
v 0.777285 -0.000000 -2.890092
v -0.774911 0.000000 -2.890094
v -0.015491 0.647110 -2.890092
v -0.015818 -0.553691 -2.890093
v 0.300070 -0.133545 -2.315795
v 0.297928 0.230603 -2.315793
v 0.300070 0.013462 -2.315794
v -0.007824 0.339316 -2.315794
v -0.301705 -0.133545 -2.315796
v -0.299597 0.230603 -2.315795
v -0.301705 0.013462 -2.315796
v -0.007906 -0.241222 -2.315796
v 1.459867 0.577765 -4.299470
v 1.459867 0.755545 -4.299470
v 1.665745 0.755545 -4.293662
v 1.665745 0.577765 -4.293662
v -1.665745 0.577765 -4.293667
v -1.665745 0.755545 -4.293667
v -1.459867 0.755545 -4.299475
v -1.459867 0.577765 -4.299476
v 1.501526 0.621892 -4.268218
v 1.501526 0.711417 -4.268218
v 1.624193 0.711417 -4.262410
v 1.624193 0.621892 -4.262410
v -1.624193 0.621892 -4.262415
v -1.624193 0.711417 -4.262415
v -1.501526 0.711417 -4.268223
v -1.501526 0.621892 -4.268224
v -2.453337 -0.885518 -2.791153
v -2.453337 -0.707738 -2.791153
v -2.366352 -0.637900 -3.899745
v -2.366352 -0.709431 -3.899745
v 2.366335 -0.709431 -3.899742
v 2.366335 -0.637900 -3.899742
v 2.453323 -0.707738 -2.791151
v 2.453323 -0.885517 -2.791151
v -2.461571 -0.835479 -2.841406
v -2.461571 -0.757776 -2.841406
v -2.372637 -0.658033 -3.849492
v -2.372637 -0.689298 -3.849492
v 2.372621 -0.689298 -3.849489
v 2.372621 -0.658033 -3.849489
v 2.461557 -0.757776 -2.841404
v 2.461557 -0.835479 -2.841404
vt 0.0000 0.0000
vt 0.0000 0.0000
vt 0.0000 0.0000
vt 0.0000 0.0000
vt 0.0000 0.0000
vt 0.0000 0.0000
vt 0.0000 0.0000
vt 0.0000 0.0000
vt 0.0000 0.0000
vt 0.0000 0.0000
vt 0.0000 0.0000
vt 0.0000 0.0000
vt 0.0000 0.0000
vt 0.0000 0.0000
vt 0.0000 0.0000
vt 0.0000 0.0000
vt 0.0000 0.0000
vt 0.0000 0.0000
vt 0.0000 0.0000
vt 0.0000 0.0000
vt 0.0000 0.0000
vt 0.0000 0.0000
vt 0.0000 0.0000
vt 0.0000 0.0000
vt 0.0000 0.0000
vt 0.0000 0.0000
vt 0.0000 0.0000
vt 0.0000 0.0000
vt 0.0000 0.0000
vt 0.0000 0.0000
vt 0.0000 0.0000
vt 0.0000 0.0000
vt 0.0000 0.0000
vt 0.0000 0.0000
vt 0.0000 0.0000
vt 0.0000 0.0000
vt 0.0000 0.0000
vt 0.0000 0.0000
vt 0.0000 0.0000
vt 0.0000 0.0000
vt 0.0000 0.0000
vt 0.0000 0.0000
vt 0.0000 0.0000
vt 0.0000 0.0000
vt 0.0000 0.0000
vt 0.0000 0.0000
vt 0.0000 0.0000
vt 0.0000 0.0000
vt 0.0000 0.0000
vt 0.0000 0.0000
vt 0.0000 0.0000
vt 0.0000 0.0000
vt 0.0000 0.0000
vt 0.0000 0.0000
vt 0.0000 0.0000
vt 0.0000 0.0000
vt 0.0000 0.0000
vt 0.0000 0.0000
vt 0.0000 0.0000
vt 0.0000 0.0000
vt 0.0000 0.0000
vt 0.0000 0.0000
vt 0.0000 0.0000
vt 0.0000 0.0000
vt 0.0000 0.0000
vt 0.0000 0.0000
vt 0.0000 0.0000
vt 0.0000 0.0000
vt 0.0000 0.0000
vt 0.0000 0.0000
vt 0.0000 0.0000
vt 0.0000 0.0000
vt 0.0000 0.0000
vt 0.0000 0.0000
vt 0.0000 0.0000
vt 0.0000 0.0000
vt 0.0000 0.0000
vt 0.0000 0.0000
vt 0.0000 0.0000
vt 0.0000 0.0000
vt 0.0000 0.0000
vt 0.0000 0.0000
vt 0.0000 0.0000
vt 0.0000 0.0000
vt 0.0000 0.0000
vt 0.0000 0.0000
vt 0.0000 0.0000
vt 0.0000 0.0000
vt 0.0000 0.0000
vt 0.0000 0.0000
vt 0.0000 0.0000
vt 0.0000 0.0000
vt 0.0000 0.0000
vt 0.0000 0.0000
vt 0.0000 0.0000
vt 0.0000 0.0000
vt 0.0000 0.0000
vt 0.0000 0.0000
vt 0.0000 0.0000
vt 0.0000 0.0000
vt 0.0000 0.0000
vt 0.0000 0.0000
vt 0.0000 0.0000
vt 0.0000 0.0000
vt 0.0000 0.0000
vt 0.0000 0.0000
vt 0.0000 0.0000
vt 0.0000 0.0000
vt 0.0000 0.0000
vt 0.0000 0.0000
vt 0.0000 0.0000
vt 0.0000 0.0000
vt 0.0000 0.0000
vt 0.0000 0.0000
vt 0.0000 0.0000
vt 0.0000 0.0000
vt 0.0000 0.0000
vt 0.0000 0.0000
vt 0.0000 0.0000
vt 0.0000 0.0000
vt 0.0000 0.0000
vt 0.0000 0.0000
vt 0.0000 0.0000
vt 0.0000 0.0000
vt 0.0000 0.0000
vt 0.0000 0.0000
vt 0.0000 0.0000
vt 0.0000 0.0000
vt 0.0000 0.0000
vt 0.0000 0.0000
vt 0.0000 0.0000
vt 1.0000 0.0000
vt 1.0000 1.0000
vt 0.0000 1.0000
vt 1.0000 0.0000
vt 1.0000 1.0000
vt 0.0000 1.0000
vt 1.0000 0.0000
vt 1.0000 1.0000
vt 0.0000 1.0000
vt 1.0000 0.0000
vt 1.0000 1.0000
vt 0.0000 1.0000
vt 1.0000 0.0000
vt 1.0000 1.0000
vt 0.0000 1.0000
vt 1.0000 0.0000
vt 1.0000 1.0000
vt 0.0000 1.0000
vt 1.0000 0.0000
vt 1.0000 1.0000
vt 0.0000 1.0000
vt 1.0000 0.0000
vt 1.0000 1.0000
vt 0.0000 1.0000
vt 0.0000 0.0000
vt 0.0000 0.0000
vt 0.0000 0.0000
vt 0.0000 0.0000
vt 0.0000 0.0000
vt 0.0000 0.0000
vt 0.0000 0.0000
vt 0.0000 0.0000
vt 0.0000 0.0000
vt 0.0000 0.0000
vt 0.0000 0.0000
vt 0.0000 0.0000
vt 0.0000 0.0000
vt 1.0000 0.0000
vt 1.0000 1.0000
vt 0.0000 1.0000
vt 1.0000 0.0000
vt 1.0000 1.0000
vt 0.0000 1.0000
vt 1.0000 0.0000
vt 1.0000 1.0000
vt 0.0000 1.0000
vt 1.0000 0.0000
vt 1.0000 1.0000
vt 0.0000 1.0000
vn 0.0000 -0.9994 -0.0346
vn 0.8117 0.5684 0.1347
vn -0.6759 0.0744 0.7332
vn -0.8278 0.5608 -0.0139
vn -0.5710 -0.8203 0.0333
vn -0.4032 -0.8989 -0.1713
vn 0.9870 0.0091 -0.1604
vn -0.8124 0.5678 0.1331
vn 0.8270 0.5620 -0.0144
vn -0.3670 -0.9287 0.0527
vn 0.9977 0.0000 -0.0681
vn -0.9624 -0.2264 0.1502
vn 0.9871 0.0000 -0.1604
vn -0.9977 -0.0000 -0.0674
vn -0.1021 -0.9654 0.2400
vn 0.9613 -0.2295 0.1522
vn 0.0979 -0.9658 0.2401
vn 0.3534 -0.9339 0.0538
vn 0.3883 -0.9055 -0.1713
vn 0.5543 -0.8317 0.0325
vn 0.6567 0.0668 0.7512
vn 0.6001 0.0000 -0.7999
vn -0.8966 -0.0068 -0.4428
vn 0.9432 -0.0000 0.3322
vn 0.4884 -0.8722 0.0274
vn 0.0473 0.0000 -0.9989
vn -0.9433 -0.0000 0.3320
vn 0.8966 -0.0067 -0.4427
vn -0.4880 -0.8724 0.0271
vn -0.9868 0.0000 0.1617
vn -0.8729 0.0000 0.4878
vn 0.8190 0.0000 -0.5738
vn 0.4075 -0.9131 0.0155
vn -0.9961 0.0000 -0.0879
vn -0.8190 0.0000 -0.5738
vn 0.8728 -0.0000 0.4880
vn -0.4075 -0.9131 0.0154
vn 0.0000 0.1710 -0.9853
vn -0.9509 0.0159 -0.3091
vn -0.0053 0.9364 -0.3510
vn 0.4926 -0.0654 -0.8678
vn -0.1053 -0.7953 -0.5970
vn 0.0000 -0.4620 -0.8869
vn -0.9880 -0.0848 -0.1293
vn -0.0385 0.9561 -0.2905
vn 0.7965 -0.3426 -0.4983
vn 0.0892 -0.9425 -0.3220
vn -0.7871 -0.3417 -0.5136
vn 0.0370 0.9560 -0.2912
vn 0.9817 -0.0841 -0.1711
vn -0.0853 -0.9437 -0.3196
vn 0.0000 0.1709 -0.9853
vn -0.4804 -0.0627 -0.8748
vn 0.0050 0.9363 -0.3513
vn 0.9250 0.0120 -0.3798
vn 0.1016 -0.7932 -0.6005
vn -0.3495 -0.9369 0.0130
vn 0.8335 -0.0000 0.5526
vn -0.8155 0.0000 -0.5788
vn 0.1585 -0.9833 0.0891
vn 0.6660 -0.0000 0.7459
vn -0.3843 0.0000 -0.9232
vn 0.3493 -0.9369 0.0132
vn 0.8154 0.0000 -0.5788
vn -0.8337 -0.0000 0.5523
vn -0.1586 -0.9833 0.0890
vn 0.3843 0.0000 -0.9232
vn -0.6662 -0.0000 0.7458
vn -0.7771 -0.2236 0.5883
vn -0.9875 0.0090 -0.1576
vn -0.9875 0.0000 -0.1576
vn 0.3375 -0.8385 0.4278
vn 0.7746 -0.2229 0.5919
vn -0.3515 -0.8303 0.4325
vn 0.0000 0.0000 1.0000
vn 0.0288 -0.5777 -0.8157
vn -0.6011 0.0000 -0.7992
vn 0.0288 0.5777 -0.8157
vn -0.0473 0.0000 -0.9989
vn 0.6011 0.0000 -0.7992
vn -0.0288 -0.5777 -0.8157
vn -0.6001 0.0000 -0.7999
vn -0.0288 0.5777 -0.8157
vn 0.0000 0.0000 -1.0000
vn 0.7700 -0.6377 -0.0192
vn -0.7700 -0.6377 -0.0192
vn -0.9772 0.2022 -0.0650
vn -0.9923 0.0000 -0.1241
vn -0.9731 -0.2014 -0.1115
vn 0.9961 0.0000 -0.0879
vn 0.9923 0.0000 -0.1241
vn 0.9772 0.2022 -0.0650
vn 0.9868 0.0000 0.1617
vn 0.9731 -0.2014 -0.1115
vn -0.1084 0.9885 0.1054
vn 0.1083 0.9885 0.1055
vn -0.2467 0.9676 -0.0540
vn 0.2467 0.9676 -0.0540
vn 0.4652 0.8852 -0.0057
vn -0.1545 0.9845 -0.0831
vn -0.4651 0.8853 -0.0059
vn 0.1545 0.9845 -0.0830
vn -0.9742 0.2102 -0.0819
vn -0.5474 0.8314 0.0957
vn -0.4083 0.8808 -0.2397
vn -0.5745 0.8185 0.0068
vn -0.9795 -0.1918 -0.0619
vn 0.5537 0.8327 0.0072
vn 0.3933 0.8875 -0.2402
vn 0.5309 0.8420 0.0958
vn -0.3354 0.9380 0.0869
vn 0.3154 0.9450 0.0862
vn 0.2601 -0.9649 -0.0371
vn 0.9796 -0.1919 -0.0593
vn 0.9744 0.2105 -0.0792
vn -0.2743 -0.9610 -0.0365
vn -0.7920 0.1793 0.5835
vn 0.3595 0.8376 0.4113
vn 0.7895 0.1789 0.5871
vn -0.3739 0.8289 0.4162
vn -0.3863 0.9141 0.1229
vn -0.7780 0.6129 0.1380
vn -0.6123 0.7418 0.2736
vn 0.3588 0.9255 0.1217
vn 0.5889 0.7566 0.2842
vn 0.7673 0.6259 0.1397
vn -1.0000 0.0000 -0.0004
vn 1.0000 0.0000 0.0004
vn 0.0032 -0.9862 0.1654
vn -1.0000 0.0000 0.0004
vn 1.0000 0.0000 -0.0004
vn -0.0032 -0.9862 0.1654
vn 0.0032 0.9862 0.1654
vn -0.0032 0.9862 0.1654
vn -0.7695 0.6373 -0.0419
vn 0.7695 0.6373 -0.0419
vn 0.3437 0.9241 -0.1673
vn -0.3609 0.9178 -0.1656
usemtl Material.007
s off
f 40/1/1 32/2/1 3/3/1 19/4/1
f 30/5/2 18/6/2 6/7/2 22/8/2
f 42/9/3 34/10/3 7/11/3 23/12/3
f 29/13/4 20/14/4 12/15/4 25/16/4
f 37/17/5 36/18/5 10/19/5 13/20/5
f 112/21/6 37/17/6 13/20/6 109/22/6
f 107/23/7 106/24/7 16/25/7 27/26/7
f 23/12/8 7/11/8 20/14/8 29/13/8
f 26/27/9 11/28/9 18/6/9 30/5/9
f 36/18/10 40/1/10 19/4/10 10/19/10
f 9/29/11 26/27/11 30/5/11 17/30/11
f 3/3/12 23/12/12 29/13/12 19/4/12
f 105/31/13 107/23/13 27/26/13 15/32/13
f 19/4/14 29/13/14 25/16/14 10/19/14
f 32/2/15 42/9/15 23/12/15 3/3/15
f 17/30/16 30/5/16 22/8/16 2/33/16
f 2/33/17 22/8/17 42/9/17 32/2/17
f 9/29/18 17/30/18 40/1/18 36/18/18
f 105/31/19 15/32/19 37/17/19 112/21/19
f 15/32/20 9/29/20 36/18/20 37/17/20
f 22/8/21 6/7/21 34/10/21 42/9/21
f 17/30/1 2/33/1 32/2/1 40/1/1
f 114/34/22 122/35/22 121/36/22 113/37/22
f 16/25/23 44/38/23 43/39/23 27/26/23
f 26/27/24 46/40/24 45/41/24 11/28/24
f 27/26/25 43/39/25 46/40/25 26/27/25
f 121/36/26 122/35/26 123/42/26 124/43/26
f 12/15/27 48/44/27 47/45/27 25/16/27
f 28/46/28 50/47/28 49/48/28 14/49/28
f 25/16/29 47/45/29 50/47/29 28/46/29
f 130/50/30 138/51/30 137/52/30 129/53/30
f 93/54/31 52/55/31 51/56/31 96/57/31
f 95/58/32 54/59/32 53/60/32 94/61/32
f 96/57/33 51/56/33 54/59/33 95/58/33
f 137/52/34 138/51/34 139/62/34 140/63/34
f 85/64/35 56/65/35 55/66/35 88/67/35
f 87/68/36 58/69/36 57/70/36 86/71/36
f 88/67/37 55/66/37 58/69/37 87/68/37
f 59/72/38 60/73/38 61/74/38 62/75/38
f 31/76/39 60/73/39 59/72/39 41/77/39
f 4/78/40 61/74/40 60/73/40 31/76/40
f 24/79/41 62/75/41 61/74/41 4/78/41
f 41/77/42 59/72/42 62/75/42 24/79/42
f 63/80/43 64/81/43 65/82/43 66/83/43
f 41/77/44 64/81/44 63/80/44 33/84/44
f 24/79/45 65/82/45 64/81/45 41/77/45
f 8/85/46 66/83/46 65/82/46 24/79/46
f 33/84/47 63/80/47 66/83/47 8/85/47
f 67/86/43 68/87/43 69/88/43 70/89/43
f 21/90/48 68/87/48 67/86/48 5/91/48
f 41/77/49 69/88/49 68/87/49 21/90/49
f 33/84/50 70/89/50 69/88/50 41/77/50
f 5/91/51 67/86/51 70/89/51 33/84/51
f 71/92/52 72/93/52 73/94/52 74/95/52
f 1/96/53 72/93/53 71/92/53 21/90/53
f 31/76/54 73/94/54 72/93/54 1/96/54
f 41/77/55 74/95/55 73/94/55 31/76/55
f 21/90/56 71/92/56 74/95/56 41/77/56
f 15/32/57 82/97/57 84/98/57 9/29/57
f 9/29/58 84/98/58 83/99/58 26/27/58
f 27/26/59 81/100/59 82/97/59 15/32/59
f 82/97/60 88/67/60 87/68/60 84/98/60
f 84/98/61 87/68/61 86/71/61 83/99/61
f 81/100/62 85/64/62 88/67/62 82/97/62
f 10/19/63 90/101/63 92/102/63 13/20/63
f 13/20/64 92/102/64 91/103/64 28/46/64
f 25/16/65 89/104/65 90/101/65 10/19/65
f 90/101/66 96/57/66 95/58/66 92/102/66
f 92/102/67 95/58/67 94/61/67 91/103/67
f 89/104/68 93/54/68 96/57/68 90/101/68
f 109/22/69 111/105/69 102/106/69 97/107/69
f 28/46/70 14/49/70 110/108/70 111/105/70
f 13/20/71 28/46/71 111/105/71 109/22/71
f 99/109/72 105/31/72 112/21/72 104/110/72
f 99/109/73 101/111/73 107/23/73 105/31/73
f 104/110/74 112/21/74 109/22/74 97/107/74
f 52/55/75 130/50/75 129/53/75 51/56/75
f 115/112/76 123/42/76 122/35/76 114/34/76
f 116/113/77 124/43/77 123/42/77 115/112/77
f 113/37/78 121/36/78 124/43/78 116/113/78
f 125/114/79 126/115/79 127/116/79 128/117/79
f 118/118/80 126/115/80 125/114/80 117/119/80
f 119/120/81 127/116/81 126/115/81 118/118/81
f 120/121/82 128/117/82 127/116/82 119/120/82
f 117/119/83 125/114/83 128/117/83 120/121/83
f 54/59/84 132/122/84 131/123/84 53/60/84
f 51/56/85 129/53/85 132/122/85 54/59/85
f 56/65/84 134/124/84 133/125/84 55/66/84
f 58/69/75 136/126/75 135/127/75 57/70/75
f 55/66/86 133/125/86 136/126/86 58/69/86
f 131/123/87 139/62/87 138/51/87 130/50/87
f 132/122/88 140/63/88 139/62/88 131/123/88
f 129/53/89 137/52/89 140/63/89 132/122/89
f 141/128/90 142/129/90 143/130/90 144/131/90
f 134/124/91 142/129/91 141/128/91 133/125/91
f 135/127/92 143/130/92 142/129/92 134/124/92
f 136/126/93 144/131/93 143/130/93 135/127/93
f 133/125/94 141/128/94 144/131/94 136/126/94
usemtl Material.007_hull-panels-merged-2.jpg
f 11/28/95 45/132/95 44/133/95 16/134/95
f 14/49/96 49/135/96 48/136/96 12/137/96
f 94/61/97 53/138/97 52/139/97 93/140/97
f 86/71/98 57/141/98 56/142/98 85/143/98
f 26/27/99 83/144/99 81/145/99 27/146/99
f 83/99/100 86/147/100 85/148/100 81/149/100
f 28/46/101 91/150/101 89/151/101 25/152/101
f 91/103/102 94/153/102 93/154/102 89/155/102
usemtl Material.007_8971306-Seamless-Space-Hull-Ship-Pattern-as-Background-Stock-Ph
f 102/106/103 98/156/103 8/85/103 24/79/103
f 38/157/104 14/49/104 12/15/104 35/158/104
f 108/159/105 110/108/105 14/49/105 38/157/105
f 35/158/106 12/15/106 20/14/106 39/160/106
f 97/107/107 102/106/107 24/79/107 4/78/107
f 11/28/108 35/158/108 39/160/108 18/6/108
f 106/24/109 108/159/109 38/157/109 16/25/109
f 16/25/110 38/157/110 35/158/110 11/28/110
f 20/14/111 76/161/111 75/162/111 39/160/111
f 39/160/112 75/162/112 79/163/112 18/6/112
f 1/96/113 99/109/113 104/110/113 31/76/113
f 1/96/114 21/90/114 101/111/114 99/109/114
f 21/90/115 5/91/115 100/164/115 101/111/115
f 31/76/116 104/110/116 97/107/116 4/78/116
f 111/105/117 110/108/117 98/156/117 102/106/117
f 100/164/118 103/165/118 108/159/118 106/24/118
f 101/111/119 100/164/119 106/24/119 107/23/119
f 103/165/120 98/156/120 110/108/120 108/159/120
usemtl Material.008
f 75/162/121 76/161/121 77/166/121 78/167/121
f 7/11/122 77/166/122 76/161/122 20/14/122
f 34/10/123 78/167/123 77/166/123 7/11/123
f 79/163/124 75/162/124 78/167/124 80/168/124
f 6/7/125 80/168/125 78/167/125 34/10/125
f 18/6/126 79/163/126 80/168/126 6/7/126
usemtl Material.009
f 44/38/127 114/34/127 113/37/127 43/39/127
f 46/40/128 116/113/128 115/112/128 45/41/128
f 43/39/129 113/37/129 116/113/129 46/40/129
f 48/44/130 118/118/130 117/119/130 47/45/130
f 50/47/131 120/121/131 119/120/131 49/48/131
f 47/45/132 117/119/132 120/121/132 50/47/132
usemtl Material.009_hull-panels-merged-2.jpg
f 45/41/133 115/169/133 114/170/133 44/171/133
f 49/48/134 119/172/134 118/173/134 48/174/134
f 53/60/135 131/175/135 130/176/135 52/177/135
f 57/70/136 135/178/136 134/179/136 56/180/136
usemtl Material.009_8971306-Seamless-Space-Hull-Ship-Pattern-as-Background-Stock-Ph
f 5/91/137 33/84/137 103/165/137 100/164/137
f 33/84/138 8/85/138 98/156/138 103/165/138
